<svg xmlns="http://www.w3.org/2000/svg" width="183.335" height="64.787" viewBox="0 0 183.335 64.787">
  <g id="Group_1048" data-name="Group 1048" transform="translate(-7997.194 -1428.893)">
    <g id="Group_1044" data-name="Group 1044">
      <g id="Group_1042" data-name="Group 1042">
        <path id="Path_406" data-name="Path 406" d="M8179,1471.5l-14.026-14.026-9.1,9.1h0l-24.7,24.7h0a8.188,8.188,0,0,0,11.58,0l10.3-10.3,11.929,11.929L8179,1478.888A5.225,5.225,0,0,0,8179,1471.5Zm-14.026-2.446,6.139,6.139-6.139,6.139-6.139-6.139Z" fill="#00e2a1" />
      </g>
      <g id="Group_1043" data-name="Group 1043">
        <path id="Path_407" data-name="Path 407" d="M8155.094,1455.994h0l24.7-24.7h0a8.188,8.188,0,0,0-11.58,0l-10.3,10.3-11.929-11.929-14.062,14.062a5.172,5.172,0,0,0,0,7.315l14.062,14.061Zm-9.1-14.756,6.139,6.139-6.139,6.139-6.139-6.139Z" fill="#00b1ff" />
      </g>
    </g>
    <g id="Group_1047" data-name="Group 1047">
      <g id="Group_1045" data-name="Group 1045">
        <path id="Path_408" data-name="Path 408" d="M8012.586,1490.351V1483.2c0-1.744-.72-2.215-1.662-2.215a3.272,3.272,0,0,0-1.689.5v8.865H8005.3V1483.2c0-1.744-.72-2.215-1.663-2.215a3.572,3.572,0,0,0-1.689.5v8.865h-3.934v-12.077l3.88-.333v1.3a4.512,4.512,0,0,1,3.185-1.413,3.583,3.583,0,0,1,3.546,1.856,5.055,5.055,0,0,1,3.739-1.856c2.575,0,4.155,1.247,4.155,4.682v7.839Z" fill="#fff" />
        <path id="Path_409" data-name="Path 409" d="M8028.018,1490.6l-.14-1.3a6.176,6.176,0,0,1-3.628,1.33c-2.466,0-4.128-1.136-4.128-4.571v-7.783l3.934-.333v7.59c0,1.329.72,1.689,1.69,1.689a2.91,2.91,0,0,0,2-.8v-8.143l3.932-.333v9.362a17.438,17.438,0,0,0,.305,3.02Z" fill="#fff" />
        <path id="Path_410" data-name="Path 410" d="M8043.282,1490.489l-.083-1.357a5.4,5.4,0,0,1-3.631,1.5c-2.6,0-5.068-1.8-5.068-5.928,0-4.543,3.214-6.87,6.343-6.87a5.468,5.468,0,0,1,1.911.277v-7.2l3.934-.333v16.619a26.659,26.659,0,0,0,.222,3.159Zm-.528-9.223a3.176,3.176,0,0,0-1.3-.306c-1.524,0-2.688.8-2.688,3.352,0,2.216.86,3.131,2.3,3.131a3.606,3.606,0,0,0,1.689-.417Z" fill="#fff" />
        <path id="Path_411" data-name="Path 411" d="M8056.634,1490.628l-.36-1.165a6.169,6.169,0,0,1-3.462,1.165,3.147,3.147,0,0,1-3.325-3.351,4.039,4.039,0,0,1,1.717-3.408l4.82-.471v-.609c0-1.246-.637-1.634-1.855-1.634a5.743,5.743,0,0,0-2.937.968l-1.025-2.852a10.129,10.129,0,0,1,5.125-1.441c2.854,0,4.46,1.025,4.46,4.128,0,.277-.083,4.487-.083,4.819a4.746,4.746,0,0,0,.137,1.357l.526,1.718Zm-3.076-4.793a3.584,3.584,0,0,0-.109.776c0,.749.277,1.218,1.135,1.218a3.523,3.523,0,0,0,1.385-.386l.028-1.94Z" fill="#fff" />
        <path id="Path_412" data-name="Path 412" d="M8071.454,1482.069a5.463,5.463,0,0,0-1.44-.223,3.678,3.678,0,0,0-2.687,1.054v7.451h-3.905v-12.077l3.849-.333v1.885a4.116,4.116,0,0,1,3.436-2,3.151,3.151,0,0,1,1.024.139Z" fill="#fff" />
        <path id="Path_413" data-name="Path 413" d="M8080.237,1490.628l-.36-1.165a6.169,6.169,0,0,1-3.462,1.165,3.147,3.147,0,0,1-3.325-3.351,4.039,4.039,0,0,1,1.717-3.408l4.82-.471v-.609c0-1.246-.637-1.634-1.855-1.634a5.74,5.74,0,0,0-2.937.968l-1.025-2.852a10.128,10.128,0,0,1,5.125-1.441c2.853,0,4.46,1.025,4.46,4.128,0,.277-.083,4.487-.083,4.819a4.746,4.746,0,0,0,.137,1.357l.526,1.718Zm-3.076-4.793a3.524,3.524,0,0,0-.109.776c0,.749.277,1.218,1.134,1.218a3.518,3.518,0,0,0,1.386-.386l.028-1.94Z" fill="#fff" />
        <path id="Path_414" data-name="Path 414" d="M8092.314,1490.628a11,11,0,0,1-5.291-1.274v-18.448l3.934-.333v8.753a4.17,4.17,0,0,1,3.379-1.5c2.881,0,4.9,2.079,4.9,5.873A6.552,6.552,0,0,1,8092.314,1490.628Zm.249-9.639a3.135,3.135,0,0,0-1.606.386v5.651a3.492,3.492,0,0,0,1.413.277c1.329,0,2.6-.858,2.6-3.351C8094.974,1481.9,8093.894,1480.989,8092.563,1480.989Z" fill="#fff" />
        <path id="Path_415" data-name="Path 415" d="M8108.215,1490.628l-.36-1.165a6.169,6.169,0,0,1-3.462,1.165,3.146,3.146,0,0,1-3.324-3.351,4.039,4.039,0,0,1,1.717-3.408l4.82-.471v-.609c0-1.246-.637-1.634-1.856-1.634a5.734,5.734,0,0,0-2.935.968l-1.026-2.852a10.122,10.122,0,0,1,5.124-1.441c2.853,0,4.459,1.025,4.459,4.128,0,.277-.082,4.487-.082,4.819a4.682,4.682,0,0,0,.139,1.357l.526,1.718Zm-3.074-4.793a3.524,3.524,0,0,0-.111.776c0,.749.277,1.218,1.136,1.218a3.514,3.514,0,0,0,1.384-.386l.028-1.94Z" fill="#fff" />
      </g>
      <g id="Group_1046" data-name="Group 1046">
        <path id="Path_416" data-name="Path 416" d="M8003.165,1456.905a8.458,8.458,0,0,1-1.8-.228,5.882,5.882,0,0,1-1.948-.828,5.021,5.021,0,0,1-1.572-1.687,5.485,5.485,0,0,1-.651-2.839,6.317,6.317,0,0,1,.617-2.938,5.743,5.743,0,0,1,1.59-1.93,6.246,6.246,0,0,1,2.158-1.071,8.89,8.89,0,0,1,2.353-.324h5.16v9.313a3.339,3.339,0,0,0,.421,1.931q.423.567,1.883.567h.779a1.149,1.149,0,0,1,1.3,1.3,1.511,1.511,0,0,1-.309,1.1,1.412,1.412,0,0,1-.99.292h-1.1a8.647,8.647,0,0,1-1.606-.146,4,4,0,0,1-1.362-.519,3.393,3.393,0,0,1-1.022-.991,3.617,3.617,0,0,1-.552-1.589,10.03,10.03,0,0,1-1.606.421A9.734,9.734,0,0,1,8003.165,1456.905Zm-3.374-5.809a2.955,2.955,0,0,0,.861,2.207,3.8,3.8,0,0,0,2.741.842,8.11,8.11,0,0,0,1.541-.16,8.248,8.248,0,0,0,1.477-.424v-5.775h-2.856a4.423,4.423,0,0,0-2.661.8A2.892,2.892,0,0,0,7999.791,1451.1Zm.715-11.942a1.715,1.715,0,1,1,.5,1.216A1.655,1.655,0,0,1,8000.506,1439.154Zm4.217,0a1.715,1.715,0,1,1,.5,1.216A1.662,1.662,0,0,1,8004.723,1439.154Z" fill="#fff" />
        <path id="Path_417" data-name="Path 417" d="M8012.155,1459.566a1.148,1.148,0,0,1-1.3-1.3,1.516,1.516,0,0,1,.309-1.1,1.405,1.405,0,0,1,.989-.292h4.8a1.148,1.148,0,0,1,1.3,1.3,1.523,1.523,0,0,1-.307,1.1,1.41,1.41,0,0,1-.99.292Z" fill="#fff" />
        <path id="Path_418" data-name="Path 418" d="M8016.958,1459.566a1.148,1.148,0,0,1-1.3-1.3,1.523,1.523,0,0,1,.308-1.1,1.413,1.413,0,0,1,.991-.292h4.8a1.148,1.148,0,0,1,1.3,1.3,1.511,1.511,0,0,1-.308,1.1,1.41,1.41,0,0,1-.989.292Z" fill="#fff" />
        <path id="Path_419" data-name="Path 419" d="M8021.761,1459.566a1.148,1.148,0,0,1-1.3-1.3,1.52,1.52,0,0,1,.308-1.1,1.413,1.413,0,0,1,.991-.292h4.8a1.148,1.148,0,0,1,1.3,1.3,1.514,1.514,0,0,1-.309,1.1,1.411,1.411,0,0,1-.989.292Z" fill="#fff" />
        <path id="Path_420" data-name="Path 420" d="M8026.563,1459.566a1.148,1.148,0,0,1-1.3-1.3,1.516,1.516,0,0,1,.309-1.1,1.4,1.4,0,0,1,.989-.292h4.8a1.148,1.148,0,0,1,1.3,1.3,1.521,1.521,0,0,1-.307,1.1,1.411,1.411,0,0,1-.99.292Z" fill="#fff" />
        <path id="Path_421" data-name="Path 421" d="M8031.366,1459.566a1.148,1.148,0,0,1-1.3-1.3,1.516,1.516,0,0,1,.309-1.1,1.407,1.407,0,0,1,.989-.292h4.8a1.148,1.148,0,0,1,1.3,1.3,1.523,1.523,0,0,1-.307,1.1,1.409,1.409,0,0,1-.99.292Z" fill="#fff" />
        <path id="Path_422" data-name="Path 422" d="M8036.169,1459.566a1.148,1.148,0,0,1-1.3-1.3,1.52,1.52,0,0,1,.308-1.1,1.411,1.411,0,0,1,.991-.292h5.062v-9.8h2.661v12.495Zm4.121,4.835a1.717,1.717,0,1,1,.5,1.217A1.659,1.659,0,0,1,8040.29,1464.4Z" fill="#fff" />
        <path id="Path_423" data-name="Path 423" d="M8050.773,1448.694h2.628v9.053a24.994,24.994,0,0,1-.276,4.042,5.851,5.851,0,0,1-1.055,2.645,4.385,4.385,0,0,1-2.158,1.46,11.615,11.615,0,0,1-3.553.454v-2.694a7.2,7.2,0,0,0,2.482-.34,2.514,2.514,0,0,0,1.331-1.1,4.515,4.515,0,0,0,.519-1.948q.08-1.185.082-2.872Z" fill="#fff" />
        <path id="Path_424" data-name="Path 424" d="M8064.726,1458.171a1.511,1.511,0,0,1-.309,1.1,1.41,1.41,0,0,1-.99.292h-.843a7.928,7.928,0,0,1-1.9-.211,3.285,3.285,0,0,1-2.4-2.11,5.88,5.88,0,0,1-.341-2.157v-18.694h2.662v17.979a3.328,3.328,0,0,0,.421,1.931q.42.567,1.883.567h.518A1.149,1.149,0,0,1,8064.726,1458.171Z" fill="#fff" />
        <path id="Path_425" data-name="Path 425" d="M8074.591,1459.566a6.366,6.366,0,0,1-1.654-.179,3.281,3.281,0,0,1-1.055-.47,2.451,2.451,0,0,1-.649-.682,8.814,8.814,0,0,1-.438-.78,2.856,2.856,0,0,1-.78,1.089,3.479,3.479,0,0,1-1.232.632,8.593,8.593,0,0,1-1.8.309q-1.055.081-2.483.081h-1.071a1.148,1.148,0,0,1-1.3-1.3,1.516,1.516,0,0,1,.309-1.1,1.412,1.412,0,0,1,.99-.292h1.135q1.072,0,1.819-.064a2.978,2.978,0,0,0,1.184-.309,1.4,1.4,0,0,0,.632-.713,3.431,3.431,0,0,0,.195-1.283v-5.808h2.661v4.609q0,.812.065,1.476a2.984,2.984,0,0,0,.308,1.12,1.779,1.779,0,0,0,.7.714,2.5,2.5,0,0,0,1.232.258,19.873,19.873,0,0,1,1.7-3.618,16.113,16.113,0,0,1,2.6-3.31,12.863,12.863,0,0,1,3.423-2.4,9.418,9.418,0,0,1,4.154-.926,6.6,6.6,0,0,1,5.1,1.932,7.86,7.86,0,0,1,1.784,5.533v2.79h2.467a1.148,1.148,0,0,1,1.3,1.3,1.511,1.511,0,0,1-.308,1.1,1.405,1.405,0,0,1-.989.292Zm14.863-2.7V1454.7a8.994,8.994,0,0,0-.243-2.159,4.551,4.551,0,0,0-.794-1.7,3.653,3.653,0,0,0-1.445-1.1,5.4,5.4,0,0,0-2.159-.388,6.444,6.444,0,0,0-2.92.68,9.605,9.605,0,0,0-2.451,1.752,12.809,12.809,0,0,0-1.914,2.419,15.051,15.051,0,0,0-1.314,2.676Zm-6.166-15.252a1.717,1.717,0,1,1,.5,1.218A1.658,1.658,0,0,1,8083.288,1441.619Z" fill="#fff" />
        <path id="Path_426" data-name="Path 426" d="M8094.582,1459.566a1.148,1.148,0,0,1-1.3-1.3,1.518,1.518,0,0,1,.309-1.1,1.409,1.409,0,0,1,.99-.292h1.331a3.616,3.616,0,0,0,.811-.1,2.21,2.21,0,0,0,.843-.423,4.149,4.149,0,0,0,.828-.892,6.617,6.617,0,0,0,.763-1.542,16.618,16.618,0,0,1,1.573-3.358,8.409,8.409,0,0,1,1.687-1.979,4.627,4.627,0,0,1,1.754-.926,7.161,7.161,0,0,1,1.768-.227,5.463,5.463,0,0,1,2.255.471,5.268,5.268,0,0,1,1.817,1.33,6.388,6.388,0,0,1,1.2,2.045,7.579,7.579,0,0,1,.438,2.644,6.812,6.812,0,0,1-1.33,4.447,5.064,5.064,0,0,1-4.153,1.622,9.629,9.629,0,0,1-3.1-.519,11.6,11.6,0,0,1-3.2-1.752,4.716,4.716,0,0,1-.859,1.022,3.008,3.008,0,0,1-.926.551,3.918,3.918,0,0,1-1,.227c-.347.033-.714.05-1.1.05Zm14.376-5.744a4.669,4.669,0,0,0-.212-1.4,3.7,3.7,0,0,0-.615-1.2,3.076,3.076,0,0,0-.991-.828,2.88,2.88,0,0,0-1.362-.308,3.4,3.4,0,0,0-2.5,1.2,11.725,11.725,0,0,0-2.142,4.219,13.636,13.636,0,0,0,2.384,1.25,6.518,6.518,0,0,0,2.419.469,3.07,3.07,0,0,0,2.191-.778A3.5,3.5,0,0,0,8108.958,1453.822Z" fill="#fff" />
      </g>
    </g>
  </g>
</svg>