<svg xmlns="http://www.w3.org/2000/svg" width="381.707" height="134.887" viewBox="0 0 381.707 134.887">
  <g id="Group_1831" data-name="Group 1831" transform="translate(-7319.438 -3457.369)">
    <g id="Group_1826" data-name="Group 1826">
      <g id="Group_1824" data-name="Group 1824">
        <path id="Path_2399" data-name="Path 2399" d="M7697.959,3546.08l-29.2-29.2-18.951,18.951h0l-51.434,51.433h0a17.048,17.048,0,0,0,24.11,0l21.438-21.438,24.837,24.837,29.2-29.2A10.875,10.875,0,0,0,7697.959,3546.08Zm-29.2-5.091,12.781,12.781-12.781,12.782-12.782-12.782Z" fill="#00e2a1"/>
      </g>
      <g id="Group_1825" data-name="Group 1825">
        <path id="Path_2400" data-name="Path 2400" d="M7648.188,3513.8h0l51.434-51.434h0a17.05,17.05,0,0,0-24.11,0l-21.438,21.438-24.837-24.836-29.276,29.276a10.77,10.77,0,0,0,0,15.231l29.276,29.276Zm-18.951-30.722,12.781,12.781-12.781,12.782-12.781-12.782Z" fill="#00b1ff"/>
      </g>
    </g>
    <g id="Group_1829" data-name="Group 1829">
      <g id="Group_1827" data-name="Group 1827">
        <path id="Path_2401" data-name="Path 2401" d="M7351.484,3585.327v-14.881c0-3.631-1.5-4.612-3.461-4.612a6.8,6.8,0,0,0-3.516,1.037v18.456h-8.191v-14.881c0-3.631-1.5-4.612-3.461-4.612a7.437,7.437,0,0,0-3.516,1.037v18.456h-8.191v-25.144l8.077-.694v2.711a9.4,9.4,0,0,1,6.632-2.943c3.458,0,5.938,1.1,7.382,3.866,2.826-2.94,5.361-3.866,7.786-3.866,5.361,0,8.65,2.6,8.65,9.748v16.322Z" fill="#fff"/>
        <path id="Path_2402" data-name="Path 2402" d="M7383.613,3585.845l-.29-2.711c-2.712,1.848-4.9,2.77-7.555,2.77-5.133,0-8.594-2.366-8.594-9.517v-16.2l8.19-.694v15.8c0,2.767,1.5,3.517,3.52,3.517a6.054,6.054,0,0,0,4.152-1.672v-16.954l8.187-.694v19.493a36.277,36.277,0,0,0,.636,6.286Z" fill="#fff"/>
        <path id="Path_2403" data-name="Path 2403" d="M7415.393,3585.614l-.173-2.826c-2.539,2.076-4.673,3.116-7.558,3.116-5.42,0-10.553-3.748-10.553-12.342,0-9.458,6.691-14.3,13.206-14.3a11.4,11.4,0,0,1,3.98.577v-14.992l8.19-.694v34.6a55.454,55.454,0,0,0,.463,6.577Zm-1.1-19.2a6.618,6.618,0,0,0-2.709-.635c-3.174,0-5.6,1.672-5.6,6.977,0,4.615,1.79,6.519,4.788,6.519a7.529,7.529,0,0,0,3.517-.867Z" fill="#fff"/>
        <path id="Path_2404" data-name="Path 2404" d="M7443.194,3585.9l-.75-2.425c-2.48,1.5-4.384,2.425-7.209,2.425-4.384,0-6.923-3-6.923-6.978a8.409,8.409,0,0,1,3.576-7.095l10.034-.981v-1.268c0-2.594-1.326-3.4-3.862-3.4a11.964,11.964,0,0,0-6.114,2.017l-2.135-5.938a21.081,21.081,0,0,1,10.671-3c5.941,0,9.285,2.135,9.285,8.595,0,.577-.173,9.344-.173,10.035a9.858,9.858,0,0,0,.287,2.825l1.1,3.575Zm-6.4-9.98a7.376,7.376,0,0,0-.228,1.617c0,1.558.577,2.536,2.363,2.536a7.316,7.316,0,0,0,2.884-.8l.059-4.038Z" fill="#fff"/>
        <path id="Path_2405" data-name="Path 2405" d="M7474.048,3568.083a11.429,11.429,0,0,0-3-.463,7.656,7.656,0,0,0-5.592,2.194v15.513h-8.132v-25.144l8.014-.694v3.924c2.021-2.771,4.27-4.156,7.154-4.156a6.553,6.553,0,0,1,2.132.29Z" fill="#fff"/>
        <path id="Path_2406" data-name="Path 2406" d="M7492.335,3585.9l-.75-2.425c-2.48,1.5-4.383,2.425-7.209,2.425-4.383,0-6.922-3-6.922-6.978a8.408,8.408,0,0,1,3.575-7.095l10.035-.981v-1.268c0-2.594-1.327-3.4-3.862-3.4a11.961,11.961,0,0,0-6.114,2.017l-2.135-5.938a21.074,21.074,0,0,1,10.67-3c5.942,0,9.286,2.135,9.286,8.595,0,.577-.173,9.344-.173,10.035a9.842,9.842,0,0,0,.287,2.825l1.1,3.575Zm-6.4-9.98a7.376,7.376,0,0,0-.228,1.617c0,1.558.576,2.536,2.362,2.536a7.321,7.321,0,0,0,2.885-.8l.058-4.038Z" fill="#fff"/>
        <path id="Path_2407" data-name="Path 2407" d="M7517.479,3585.9c-3.748,0-8.418-.981-11.016-2.653v-38.409l8.19-.694v18.225a8.687,8.687,0,0,1,7.037-3.116c6,0,10.207,4.329,10.207,12.229C7531.9,3580.83,7525.379,3585.9,7517.479,3585.9Zm.518-20.07a6.54,6.54,0,0,0-3.344.8v11.766a7.306,7.306,0,0,0,2.944.577c2.766,0,5.419-1.786,5.419-6.978C7523.016,3567.738,7520.768,3565.834,7518,3565.834Z" fill="#fff"/>
        <path id="Path_2408" data-name="Path 2408" d="M7550.585,3585.9l-.749-2.425c-2.48,1.5-4.384,2.425-7.209,2.425-4.384,0-6.919-3-6.919-6.978a8.409,8.409,0,0,1,3.575-7.095l10.035-.981v-1.268c0-2.594-1.327-3.4-3.866-3.4a11.951,11.951,0,0,0-6.11,2.017l-2.135-5.938a21.056,21.056,0,0,1,10.667-3c5.941,0,9.285,2.135,9.285,8.595,0,.577-.173,9.344-.173,10.035a9.746,9.746,0,0,0,.29,2.825l1.1,3.575Zm-6.4-9.98a7.375,7.375,0,0,0-.232,1.617c0,1.558.577,2.536,2.366,2.536a7.3,7.3,0,0,0,2.881-.8l.059-4.038Z" fill="#fff"/>
      </g>
      <g id="Group_1828" data-name="Group 1828">
        <path id="Path_2409" data-name="Path 2409" d="M7331.871,3515.691a17.617,17.617,0,0,1-3.748-.473,12.239,12.239,0,0,1-4.056-1.724,10.478,10.478,0,0,1-3.274-3.513,11.414,11.414,0,0,1-1.355-5.91,13.158,13.158,0,0,1,1.285-6.118,11.926,11.926,0,0,1,3.31-4.017,12.987,12.987,0,0,1,4.494-2.232,18.525,18.525,0,0,1,4.9-.673h10.743v19.389a6.96,6.96,0,0,0,.877,4.021q.882,1.181,3.921,1.181h1.62a2.391,2.391,0,0,1,2.705,2.7,3.144,3.144,0,0,1-.643,2.3,2.934,2.934,0,0,1-2.062.608h-2.3a17.979,17.979,0,0,1-3.344-.3,8.291,8.291,0,0,1-2.836-1.081,7.073,7.073,0,0,1-2.128-2.062,7.543,7.543,0,0,1-1.15-3.31,20.661,20.661,0,0,1-3.344.878A20.338,20.338,0,0,1,7331.871,3515.691Zm-7.026-12.093a6.147,6.147,0,0,0,1.792,4.594q1.788,1.757,5.707,1.755a16.822,16.822,0,0,0,3.209-.335,17.257,17.257,0,0,0,3.074-.881v-12.025h-5.945a9.2,9.2,0,0,0-5.54,1.655A6.018,6.018,0,0,0,7324.845,3503.6Zm1.488-24.865a3.575,3.575,0,1,1,1.047,2.532A3.448,3.448,0,0,1,7326.333,3478.733Zm8.781,0a3.576,3.576,0,1,1,1.047,2.532A3.458,3.458,0,0,1,7335.114,3478.733Z" fill="#fff"/>
        <path id="Path_2410" data-name="Path 2410" d="M7350.586,3521.232a2.39,2.39,0,0,1-2.7-2.7,3.158,3.158,0,0,1,.642-2.3,2.931,2.931,0,0,1,2.059-.608h10a2.39,2.39,0,0,1,2.7,2.7,3.163,3.163,0,0,1-.639,2.3,2.938,2.938,0,0,1-2.062.608Z" fill="#fff"/>
        <path id="Path_2411" data-name="Path 2411" d="M7360.587,3521.232a2.391,2.391,0,0,1-2.705-2.7,3.158,3.158,0,0,1,.642-2.3,2.94,2.94,0,0,1,2.063-.608h10a2.389,2.389,0,0,1,2.7,2.7,3.149,3.149,0,0,1-.642,2.3,2.936,2.936,0,0,1-2.059.608Z" fill="#fff"/>
        <path id="Path_2412" data-name="Path 2412" d="M7370.587,3521.232a2.391,2.391,0,0,1-2.705-2.7,3.153,3.153,0,0,1,.643-2.3,2.936,2.936,0,0,1,2.062-.608h10a2.389,2.389,0,0,1,2.7,2.7,3.149,3.149,0,0,1-.642,2.3,2.934,2.934,0,0,1-2.059.608Z" fill="#fff"/>
        <path id="Path_2413" data-name="Path 2413" d="M7380.584,3521.232a2.39,2.39,0,0,1-2.7-2.7,3.157,3.157,0,0,1,.643-2.3,2.928,2.928,0,0,1,2.059-.608h10a2.39,2.39,0,0,1,2.7,2.7,3.166,3.166,0,0,1-.639,2.3,2.938,2.938,0,0,1-2.062.608Z" fill="#fff"/>
        <path id="Path_2414" data-name="Path 2414" d="M7390.584,3521.232a2.39,2.39,0,0,1-2.7-2.7,3.158,3.158,0,0,1,.642-2.3,2.931,2.931,0,0,1,2.059-.608h10a2.39,2.39,0,0,1,2.7,2.7,3.17,3.17,0,0,1-.639,2.3,2.94,2.94,0,0,1-2.063.608Z" fill="#fff"/>
        <path id="Path_2415" data-name="Path 2415" d="M7400.584,3521.232a2.39,2.39,0,0,1-2.7-2.7,3.158,3.158,0,0,1,.642-2.3,2.938,2.938,0,0,1,2.062-.608h10.539v-20.405h5.541v26.015Zm8.581,10.066a3.574,3.574,0,1,1,1.047,2.535A3.448,3.448,0,0,1,7409.165,3531.3Z" fill="#fff"/>
        <path id="Path_2416" data-name="Path 2416" d="M7430.989,3498.6h5.472v18.85a52.227,52.227,0,0,1-.573,8.415,12.187,12.187,0,0,1-2.2,5.506,9.129,9.129,0,0,1-4.494,3.04,24.194,24.194,0,0,1-7.4.946v-5.61a14.978,14.978,0,0,0,5.168-.708,5.232,5.232,0,0,0,2.77-2.3,9.4,9.4,0,0,0,1.081-4.055q.167-2.466.169-5.98Z" fill="#fff"/>
        <path id="Path_2417" data-name="Path 2417" d="M7460.04,3518.327a3.149,3.149,0,0,1-.642,2.3,2.936,2.936,0,0,1-2.062.608h-1.755a16.505,16.505,0,0,1-3.952-.439,6.841,6.841,0,0,1-5-4.394,12.267,12.267,0,0,1-.708-4.49v-38.92h5.541v37.431a6.929,6.929,0,0,0,.877,4.021q.876,1.181,3.921,1.181h1.078A2.39,2.39,0,0,1,7460.04,3518.327Z" fill="#fff"/>
        <path id="Path_2418" data-name="Path 2418" d="M7480.58,3521.232a13.2,13.2,0,0,1-3.444-.373,6.822,6.822,0,0,1-2.2-.978,5.109,5.109,0,0,1-1.351-1.419c-.338-.543-.642-1.082-.912-1.624a5.917,5.917,0,0,1-1.623,2.266,7.219,7.219,0,0,1-2.567,1.316,17.783,17.783,0,0,1-3.748.643q-2.2.171-5.171.169h-2.228a2.391,2.391,0,0,1-2.705-2.7,3.153,3.153,0,0,1,.643-2.3,2.938,2.938,0,0,1,2.062-.608h2.363q2.233,0,3.786-.135a6.22,6.22,0,0,0,2.466-.642,2.916,2.916,0,0,0,1.316-1.485,7.153,7.153,0,0,0,.4-2.671V3498.6h5.541v9.6q0,1.689.135,3.074a6.186,6.186,0,0,0,.642,2.332,3.69,3.69,0,0,0,1.455,1.485,5.187,5.187,0,0,0,2.566.539,41.227,41.227,0,0,1,3.548-7.534,33.567,33.567,0,0,1,5.406-6.891,26.8,26.8,0,0,1,7.126-5,19.608,19.608,0,0,1,8.65-1.927q6.891,0,10.608,4.021t3.714,11.52v5.81h5.136a2.389,2.389,0,0,1,2.7,2.7,3.149,3.149,0,0,1-.642,2.3,2.925,2.925,0,0,1-2.059.608Zm30.944-5.61V3511.1a18.745,18.745,0,0,0-.5-4.494,9.457,9.457,0,0,0-1.654-3.548,7.562,7.562,0,0,0-3.009-2.3,11.234,11.234,0,0,0-4.494-.808,13.414,13.414,0,0,0-6.08,1.416,19.955,19.955,0,0,0-5.1,3.648,26.676,26.676,0,0,0-3.986,5.036,31.3,31.3,0,0,0-2.736,5.572Zm-12.837-31.756a3.574,3.574,0,1,1,1.047,2.536A3.453,3.453,0,0,1,7498.687,3483.866Z" fill="#fff"/>
        <path id="Path_2419" data-name="Path 2419" d="M7522.2,3521.232a2.391,2.391,0,0,1-2.705-2.7,3.155,3.155,0,0,1,.643-2.3,2.936,2.936,0,0,1,2.062-.608h2.771a7.613,7.613,0,0,0,1.689-.2,4.575,4.575,0,0,0,1.754-.881,8.522,8.522,0,0,0,1.724-1.859,13.676,13.676,0,0,0,1.589-3.209,34.64,34.64,0,0,1,3.275-6.991,17.477,17.477,0,0,1,3.513-4.121,9.636,9.636,0,0,1,3.651-1.928,14.929,14.929,0,0,1,3.683-.473,11.4,11.4,0,0,1,4.694.981,10.983,10.983,0,0,1,3.782,2.77,13.26,13.26,0,0,1,2.5,4.256,15.79,15.79,0,0,1,.912,5.506q0,5.882-2.77,9.258t-8.646,3.378a20.057,20.057,0,0,1-6.453-1.081,24.1,24.1,0,0,1-6.656-3.648,9.8,9.8,0,0,1-1.79,2.128,6.264,6.264,0,0,1-1.927,1.147,8.141,8.141,0,0,1-2.094.473c-.722.069-1.485.1-2.3.1Zm29.932-11.959a9.752,9.752,0,0,0-.442-2.905,7.682,7.682,0,0,0-1.282-2.5,6.383,6.383,0,0,0-2.062-1.724,5.98,5.98,0,0,0-2.836-.642,7.065,7.065,0,0,0-5.2,2.5q-2.369,2.5-4.46,8.784a28.389,28.389,0,0,0,4.964,2.6,13.533,13.533,0,0,0,5.037.978,6.387,6.387,0,0,0,4.559-1.62Q7552.13,3513.124,7552.133,3509.273Z" fill="#fff"/>
      </g>
    </g>
    <g id="Group_1830" data-name="Group 1830">
      <path id="Path_2420" data-name="Path 2420" d="M7351.025,3559.257c-2.425,0-4.96.926-7.786,3.865-1.444-2.766-3.924-3.865-7.382-3.865a9.4,9.4,0,0,0-6.632,2.943v-2.712l-8.077.7v25.144h8.191V3566.87a7.437,7.437,0,0,1,3.516-1.035c1.962,0,3.461.98,3.461,4.611v14.881h8.191V3566.87a6.811,6.811,0,0,1,3.516-1.035c1.962,0,3.461.98,3.461,4.611v14.881h8.191V3569C7359.675,3561.855,7356.386,3559.257,7351.025,3559.257Z" fill="#004a87"/>
      <path id="Path_2421" data-name="Path 2421" d="M7391.223,3559.488l-8.187.7v16.954a6.054,6.054,0,0,1-4.152,1.672c-2.021,0-3.52-.75-3.52-3.517v-15.8l-8.19.7v16.2c0,7.151,3.461,9.517,8.594,9.517,2.653,0,4.843-.922,7.555-2.771l.29,2.712,8.246-.577a36.278,36.278,0,0,1-.636-6.287Z" fill="#004a87"/>
      <path id="Path_2422" data-name="Path 2422" d="M7422.485,3544.148l-8.19.694v14.992a11.379,11.379,0,0,0-3.98-.577c-6.515,0-13.206,4.847-13.206,14.3,0,8.594,5.133,12.342,10.553,12.342,2.885,0,5.019-1.04,7.558-3.116l.173,2.826,7.555-.287a55.437,55.437,0,0,1-.463-6.577Zm-8.19,34.257a7.529,7.529,0,0,1-3.517.867c-3,0-4.788-1.9-4.788-6.519,0-5.306,2.422-6.978,5.6-6.978a6.616,6.616,0,0,1,2.709.636Z" fill="#004a87"/>
      <path id="Path_2423" data-name="Path 2423" d="M7449.594,3577.886c0-.691.173-9.457.173-10.034,0-6.46-3.344-8.595-9.285-8.595a21.091,21.091,0,0,0-10.671,3l2.135,5.938a11.955,11.955,0,0,1,6.114-2.017c2.536,0,3.862.808,3.862,3.4v1.268l-10.035.981a8.411,8.411,0,0,0-3.575,7.095c0,3.98,2.539,6.978,6.923,6.978,2.825,0,4.729-.922,7.209-2.425l.75,2.425,7.782-1.616-1.1-3.576A9.861,9.861,0,0,1,7449.594,3577.886Zm-7.786,1.386a7.314,7.314,0,0,1-2.884.8c-1.786,0-2.363-.977-2.363-2.535a7.376,7.376,0,0,1,.228-1.617l5.078-.69Z" fill="#004a87"/>
      <path id="Path_2424" data-name="Path 2424" d="M7465.339,3563.413v-3.925l-8.014.7v25.144h8.132v-15.514a7.659,7.659,0,0,1,5.592-2.192,11.426,11.426,0,0,1,3,.462l.577-8.535a6.527,6.527,0,0,0-2.132-.291C7469.609,3559.257,7467.36,3560.643,7465.339,3563.413Z" fill="#004a87"/>
      <path id="Path_2425" data-name="Path 2425" d="M7498.736,3577.886c0-.691.173-9.457.173-10.034,0-6.46-3.344-8.595-9.286-8.595a21.084,21.084,0,0,0-10.67,3l2.135,5.938a11.952,11.952,0,0,1,6.114-2.017c2.535,0,3.862.808,3.862,3.4v1.268l-10.035.981a8.408,8.408,0,0,0-3.575,7.095c0,3.98,2.539,6.978,6.922,6.978,2.826,0,4.729-.922,7.209-2.425l.75,2.425,7.783-1.616-1.1-3.576A9.845,9.845,0,0,1,7498.736,3577.886Zm-7.786,1.386a7.318,7.318,0,0,1-2.885.8c-1.785,0-2.362-.977-2.362-2.535a7.376,7.376,0,0,1,.228-1.617l5.077-.69Z" fill="#004a87"/>
      <path id="Path_2426" data-name="Path 2426" d="M7521.69,3559.257a8.688,8.688,0,0,0-7.037,3.116v-18.225l-8.19.694v38.409c2.6,1.672,7.268,2.653,11.016,2.653,7.9,0,14.418-5.075,14.418-14.418C7531.9,3563.586,7527.687,3559.257,7521.69,3559.257Zm-4.094,19.724a7.306,7.306,0,0,1-2.943-.576v-11.766a6.54,6.54,0,0,1,3.344-.8c2.771,0,5.019,1.9,5.019,6.169C7523.016,3577.2,7520.363,3578.981,7517.6,3578.981Z" fill="#004a87"/>
      <path id="Path_2427" data-name="Path 2427" d="M7557.276,3580.712a9.749,9.749,0,0,1-.29-2.826c0-.691.173-9.457.173-10.034,0-6.46-3.344-8.595-9.285-8.595a21.065,21.065,0,0,0-10.667,3l2.135,5.938a11.942,11.942,0,0,1,6.11-2.017c2.539,0,3.866.808,3.866,3.4v1.268l-10.035.981a8.409,8.409,0,0,0-3.575,7.095c0,3.98,2.535,6.978,6.919,6.978,2.825,0,4.729-.922,7.209-2.425l.749,2.425,7.787-1.616Zm-8.076-1.44a7.3,7.3,0,0,1-2.881.8c-1.789,0-2.366-.977-2.366-2.535a7.375,7.375,0,0,1,.232-1.617l5.074-.69Z" fill="#004a87"/>
      <path id="Path_2428" data-name="Path 2428" d="M7338.7,3482.312a3.576,3.576,0,1,0-2.535-1.047A3.429,3.429,0,0,0,7338.7,3482.312Z" fill="#004a87"/>
      <path id="Path_2429" data-name="Path 2429" d="M7329.912,3482.312a3.575,3.575,0,1,0-2.532-1.047A3.448,3.448,0,0,0,7329.912,3482.312Z" fill="#004a87"/>
      <path id="Path_2430" data-name="Path 2430" d="M7380.584,3521.232h36.08v-26.015h-5.541v20.405h-62.157q-3.042,0-3.921-1.181a6.96,6.96,0,0,1-.877-4.021v-19.39h-10.743a18.527,18.527,0,0,0-4.9.674,12.987,12.987,0,0,0-4.494,2.232,11.926,11.926,0,0,0-3.31,4.017,13.156,13.156,0,0,0-1.284,6.118,11.414,11.414,0,0,0,1.354,5.91,10.478,10.478,0,0,0,3.274,3.513,12.239,12.239,0,0,0,4.056,1.724,17.625,17.625,0,0,0,3.748.474,20.254,20.254,0,0,0,3.616-.34,20.563,20.563,0,0,0,3.344-.877,7.543,7.543,0,0,0,1.15,3.31,7.088,7.088,0,0,0,2.128,2.062,8.291,8.291,0,0,0,2.836,1.081,17.979,17.979,0,0,0,3.344.3h32.295Zm-41.957-12.5a17.178,17.178,0,0,1-3.074.88,16.749,16.749,0,0,1-3.209.336q-3.918,0-5.707-1.755a6.148,6.148,0,0,1-1.792-4.595,6.016,6.016,0,0,1,2.3-5.236,9.2,9.2,0,0,1,5.54-1.655h5.945Z" fill="#004a87"/>
      <path id="Path_2431" data-name="Path 2431" d="M7410.212,3528.766a3.581,3.581,0,1,0,2.532-1.05A3.448,3.448,0,0,0,7410.212,3528.766Z" fill="#004a87"/>
      <path id="Path_2432" data-name="Path 2432" d="M7433.691,3531.367a12.192,12.192,0,0,0,2.2-5.506,52.227,52.227,0,0,0,.573-8.415V3498.6h-5.472V3516.7q0,3.511-.169,5.979a9.409,9.409,0,0,1-1.081,4.055,5.232,5.232,0,0,1-2.77,2.3,15,15,0,0,1-5.168.709v5.609a24.194,24.194,0,0,0,7.4-.946A9.129,9.129,0,0,0,7433.691,3531.367Z" fill="#004a87"/>
      <path id="Path_2433" data-name="Path 2433" d="M7502.27,3487.449a3.574,3.574,0,1,0-2.536-1.047A3.446,3.446,0,0,0,7502.27,3487.449Z" fill="#004a87"/>
      <path id="Path_2434" data-name="Path 2434" d="M7546.323,3522.11q5.875,0,8.646-3.379t2.77-9.258a15.79,15.79,0,0,0-.912-5.506,13.26,13.26,0,0,0-2.5-4.256,10.983,10.983,0,0,0-3.782-2.77,11.4,11.4,0,0,0-4.694-.981,14.929,14.929,0,0,0-3.683.473,9.622,9.622,0,0,0-3.651,1.928,17.477,17.477,0,0,0-3.513,4.121,34.665,34.665,0,0,0-3.275,6.991,13.692,13.692,0,0,1-1.589,3.21,8.563,8.563,0,0,1-1.723,1.858,4.571,4.571,0,0,1-1.755.881,7.613,7.613,0,0,1-1.689.2h-7.907v-5.81q0-7.5-3.714-11.52t-10.608-4.021a19.608,19.608,0,0,0-8.65,1.928,26.8,26.8,0,0,0-7.126,5,33.567,33.567,0,0,0-5.406,6.891,41.258,41.258,0,0,0-3.548,7.534,5.187,5.187,0,0,1-2.566-.539,3.69,3.69,0,0,1-1.455-1.485,6.186,6.186,0,0,1-.642-2.332q-.135-1.383-.135-3.074v-9.6h-5.541v12.094a7.151,7.151,0,0,1-.4,2.67,2.916,2.916,0,0,1-1.316,1.485,6.22,6.22,0,0,1-2.466.642q-1.555.135-3.786.135h-3.444q-3.042,0-3.921-1.181a6.929,6.929,0,0,1-.877-4.021v-37.432h-5.541v38.921a12.27,12.27,0,0,0,.708,4.49,6.841,6.841,0,0,0,5,4.394,16.505,16.505,0,0,0,3.952.439h3.986q2.974,0,5.171-.169a17.847,17.847,0,0,0,3.748-.643,7.227,7.227,0,0,0,2.567-1.316,5.917,5.917,0,0,0,1.623-2.266c.27.543.574,1.081.912,1.624a5.109,5.109,0,0,0,1.351,1.419,6.843,6.843,0,0,0,2.2.978,13.242,13.242,0,0,0,3.444.373h44.526c.812,0,1.575-.035,2.3-.1a8.141,8.141,0,0,0,2.094-.473,6.264,6.264,0,0,0,1.927-1.147,9.819,9.819,0,0,0,1.79-2.127,24.128,24.128,0,0,0,6.656,3.647A20.059,20.059,0,0,0,7546.323,3522.11Zm-34.8-6.488h-27.566a31.3,31.3,0,0,1,2.736-5.572,26.676,26.676,0,0,1,3.986-5.036,19.931,19.931,0,0,1,5.1-3.648,13.414,13.414,0,0,1,6.08-1.416,11.234,11.234,0,0,1,4.494.808,7.562,7.562,0,0,1,3.009,2.3,9.457,9.457,0,0,1,1.654,3.548,18.739,18.739,0,0,1,.5,4.494ZM7540.309,3504a7.067,7.067,0,0,1,5.2-2.5,5.98,5.98,0,0,1,2.836.642,6.359,6.359,0,0,1,2.062,1.724,7.7,7.7,0,0,1,1.282,2.5,9.752,9.752,0,0,1,.442,2.905q0,3.851-1.724,5.472a6.387,6.387,0,0,1-4.559,1.62,13.533,13.533,0,0,1-5.037-.978,28.307,28.307,0,0,1-4.964-2.6Q7537.943,3506.5,7540.309,3504Z" fill="#004a87"/>
    </g>
  </g>
</svg>
